<mxfile host="app.diagrams.net" agent="Mozilla/5.0 (Windows NT 10.0; Win64; x64) AppleWebKit/537.36 (KHTML, like Gecko) Chrome/140.0.0.0 Safari/537.36" version="28.2.5">
  <diagram name="Page-1" id="cxyQX3HmVm2yX8sZpLtN">
    <mxGraphModel dx="2414" dy="1955" grid="1" gridSize="10" guides="1" tooltips="1" connect="1" arrows="1" fold="1" page="1" pageScale="1" pageWidth="850" pageHeight="1100" math="0" shadow="0">
      <root>
        <mxCell id="0" />
        <mxCell id="1" parent="0" />
        <mxCell id="LIPZjpIcFIrhckEanFY--51" value="" style="html=1;whiteSpace=wrap;rounded=1;fillColor=#fff2cc;gradientColor=#ffd966;strokeColor=#d6b656;" vertex="1" parent="1">
          <mxGeometry x="1100" y="540" width="330" height="680" as="geometry" />
        </mxCell>
        <mxCell id="LIPZjpIcFIrhckEanFY--45" value="" style="html=1;whiteSpace=wrap;rounded=1;fillColor=light-dark(#FFFFFF,#797979);" vertex="1" parent="1">
          <mxGeometry x="870" y="760" width="330" height="680" as="geometry" />
        </mxCell>
        <mxCell id="LIPZjpIcFIrhckEanFY--44" value="" style="html=1;whiteSpace=wrap;rounded=1;fillColor=light-dark(#FFFFFF,#FFFFFF);" vertex="1" parent="1">
          <mxGeometry x="870" y="330" width="330" height="530" as="geometry" />
        </mxCell>
        <mxCell id="dRA6FbCm-RoomiW9IVKK-21" value="" style="html=1;whiteSpace=wrap;rounded=1;fillColor=light-dark(#FFFFFF,#FFFFFF);" parent="1" vertex="1">
          <mxGeometry x="50" y="640" width="940" height="470" as="geometry" />
        </mxCell>
        <mxCell id="3doMllF0IpgtHquyGkLY-1" value="" style="rounded=0;whiteSpace=wrap;html=1;" parent="1" vertex="1">
          <mxGeometry x="-70" y="-546" width="1790" height="410" as="geometry" />
        </mxCell>
        <mxCell id="3doMllF0IpgtHquyGkLY-2" value="" style="rounded=1;whiteSpace=wrap;html=1;fillColor=#d5e8d4;strokeColor=#82b366;movable=0;resizable=0;rotatable=0;deletable=0;editable=0;locked=1;connectable=0;gradientColor=#97d077;" parent="1" vertex="1">
          <mxGeometry x="50" y="975" width="940" height="465" as="geometry" />
        </mxCell>
        <mxCell id="3doMllF0IpgtHquyGkLY-3" value="&lt;p style=&quot;margin:0px;margin-top:6px;text-align:center;&quot;&gt;&lt;b&gt;&lt;font style=&quot;font-size: 14px;&quot;&gt;NameNode&lt;/font&gt;&lt;/b&gt;&lt;/p&gt;&lt;p style=&quot;margin:0px;margin-top:6px;text-align:center;&quot;&gt;&lt;b&gt;&lt;br&gt;&lt;/b&gt;&lt;/p&gt;" style="align=left;overflow=fill;html=1;dropTarget=0;whiteSpace=wrap;rounded=1;fillColor=#cce5ff;strokeColor=#36393d;" parent="1" vertex="1">
          <mxGeometry x="130" y="1060" width="470" height="300" as="geometry" />
        </mxCell>
        <mxCell id="3doMllF0IpgtHquyGkLY-4" value="" style="shape=component;jettyWidth=8;jettyHeight=4;" parent="3doMllF0IpgtHquyGkLY-3" vertex="1">
          <mxGeometry x="1" width="20" height="20" relative="1" as="geometry">
            <mxPoint x="-24" y="4" as="offset" />
          </mxGeometry>
        </mxCell>
        <mxCell id="3doMllF0IpgtHquyGkLY-5" value="&lt;font style=&quot;font-size: 14px;&quot;&gt;file namespace&lt;/font&gt;" style="html=1;whiteSpace=wrap;rounded=1;movable=0;resizable=0;rotatable=0;deletable=0;editable=0;locked=1;connectable=0;" parent="1" vertex="1">
          <mxGeometry x="170" y="1100" width="110" height="50" as="geometry" />
        </mxCell>
        <mxCell id="3doMllF0IpgtHquyGkLY-6" value="&lt;font style=&quot;font-size: 14px;&quot;&gt;Block Mappings&lt;/font&gt;" style="html=1;whiteSpace=wrap;rounded=1;movable=0;resizable=0;rotatable=0;deletable=0;editable=0;locked=1;connectable=0;" parent="1" vertex="1">
          <mxGeometry x="460" y="1100" width="110" height="50" as="geometry" />
        </mxCell>
        <mxCell id="3doMllF0IpgtHquyGkLY-7" value="&lt;font style=&quot;font-size: 14px;&quot;&gt;EditLog (TransactionLog)&lt;/font&gt;" style="html=1;whiteSpace=wrap;rounded=1;movable=0;resizable=0;rotatable=0;deletable=0;editable=0;locked=1;connectable=0;" parent="1" vertex="1">
          <mxGeometry x="170" y="1185.78" width="110" height="50" as="geometry" />
        </mxCell>
        <mxCell id="3doMllF0IpgtHquyGkLY-8" value="&lt;font style=&quot;font-size: 14px;&quot;&gt;FSImage (File + System Properties)&lt;/font&gt;" style="html=1;whiteSpace=wrap;rounded=1;movable=0;resizable=0;rotatable=0;deletable=0;editable=0;locked=1;connectable=0;" parent="1" vertex="1">
          <mxGeometry x="460" y="1185.78" width="110" height="50" as="geometry" />
        </mxCell>
        <mxCell id="3doMllF0IpgtHquyGkLY-9" value="&lt;font style=&quot;font-size: 14px;&quot;&gt;MetaData&lt;/font&gt;" style="html=1;whiteSpace=wrap;rounded=1;movable=0;resizable=0;rotatable=0;deletable=0;editable=0;locked=1;connectable=0;" parent="1" vertex="1">
          <mxGeometry x="315" y="1100" width="110" height="50" as="geometry" />
        </mxCell>
        <mxCell id="3doMllF0IpgtHquyGkLY-10" value="&lt;font style=&quot;font-size: 14px;&quot;&gt;NameSpace Operations&lt;/font&gt;" style="html=1;whiteSpace=wrap;rounded=1;movable=0;resizable=0;rotatable=0;deletable=0;editable=0;locked=1;connectable=0;" parent="1" vertex="1">
          <mxGeometry x="315" y="1185.78" width="110" height="50" as="geometry" />
        </mxCell>
        <mxCell id="3doMllF0IpgtHquyGkLY-11" value="&lt;font style=&quot;font-size: 14px;&quot;&gt;NameSpace Manager&lt;/font&gt;" style="html=1;whiteSpace=wrap;rounded=1;movable=0;resizable=0;rotatable=0;deletable=0;editable=0;locked=1;connectable=0;" parent="1" vertex="1">
          <mxGeometry x="170" y="1280" width="110" height="50" as="geometry" />
        </mxCell>
        <mxCell id="3doMllF0IpgtHquyGkLY-12" value="&lt;font style=&quot;font-size: 14px;&quot;&gt;Replication Factors&lt;/font&gt;" style="html=1;whiteSpace=wrap;rounded=1;movable=0;resizable=0;rotatable=0;deletable=0;editable=0;locked=1;connectable=0;" parent="1" vertex="1">
          <mxGeometry x="315" y="1280" width="110" height="50" as="geometry" />
        </mxCell>
        <mxCell id="3doMllF0IpgtHquyGkLY-13" value="&lt;p style=&quot;margin:0px;margin-top:6px;text-align:center;&quot;&gt;&lt;b&gt;&lt;font style=&quot;font-size: 14px;&quot;&gt;Backup NameNode&amp;nbsp;&lt;/font&gt;&lt;/b&gt;&lt;/p&gt;" style="align=left;overflow=fill;html=1;dropTarget=0;whiteSpace=wrap;rounded=1;fillColor=#cce5ff;strokeColor=#36393d;movable=0;resizable=0;rotatable=0;deletable=0;editable=0;locked=1;connectable=0;" parent="1" vertex="1">
          <mxGeometry x="628.12" y="1064.22" width="290" height="130" as="geometry" />
        </mxCell>
        <mxCell id="3doMllF0IpgtHquyGkLY-14" value="" style="shape=component;jettyWidth=8;jettyHeight=4;" parent="3doMllF0IpgtHquyGkLY-13" vertex="1">
          <mxGeometry x="1" width="20" height="20" relative="1" as="geometry">
            <mxPoint x="-24" y="4" as="offset" />
          </mxGeometry>
        </mxCell>
        <mxCell id="3doMllF0IpgtHquyGkLY-15" style="edgeStyle=none;curved=1;rounded=0;orthogonalLoop=1;jettySize=auto;html=1;exitX=1;exitY=1;exitDx=0;exitDy=0;fontSize=12;startSize=8;endSize=8;" parent="1" source="3doMllF0IpgtHquyGkLY-13" target="3doMllF0IpgtHquyGkLY-13" edge="1">
          <mxGeometry relative="1" as="geometry" />
        </mxCell>
        <mxCell id="3doMllF0IpgtHquyGkLY-16" value="&lt;font style=&quot;font-size: 14px;&quot;&gt;Periodic NameSpace Checkpoints&lt;/font&gt;" style="html=1;whiteSpace=wrap;rounded=1;movable=0;resizable=0;rotatable=0;deletable=0;editable=0;locked=1;connectable=0;" parent="1" vertex="1">
          <mxGeometry x="648.12" y="1109.22" width="110" height="50" as="geometry" />
        </mxCell>
        <mxCell id="3doMllF0IpgtHquyGkLY-19" style="edgeStyle=none;curved=1;rounded=0;orthogonalLoop=1;jettySize=auto;html=1;exitX=1;exitY=1;exitDx=0;exitDy=0;fontSize=12;startSize=8;endSize=8;" parent="1" edge="1">
          <mxGeometry relative="1" as="geometry">
            <mxPoint x="1790.0000000000005" y="1360" as="sourcePoint" />
            <mxPoint x="1790.0000000000005" y="1360" as="targetPoint" />
          </mxGeometry>
        </mxCell>
        <mxCell id="3doMllF0IpgtHquyGkLY-21" value="&lt;font style=&quot;font-size: 14px;&quot;&gt;EditLog Cleaner&lt;/font&gt;" style="html=1;whiteSpace=wrap;movable=0;resizable=0;rotatable=0;deletable=0;editable=0;locked=1;connectable=0;" parent="1" vertex="1">
          <mxGeometry x="788.12" y="1109.22" width="110" height="50" as="geometry" />
        </mxCell>
        <mxCell id="3doMllF0IpgtHquyGkLY-22" value="&lt;font style=&quot;font-size: 22px;&quot;&gt;NameNode Layer&lt;/font&gt;" style="text;html=1;align=center;verticalAlign=middle;whiteSpace=wrap;rounded=0;movable=0;resizable=0;rotatable=0;deletable=0;editable=0;locked=1;connectable=0;" parent="1" vertex="1">
          <mxGeometry x="140" y="1010" width="250" height="30" as="geometry" />
        </mxCell>
        <mxCell id="3doMllF0IpgtHquyGkLY-23" value="LOWEST LAYER" style="text;html=1;align=center;verticalAlign=middle;whiteSpace=wrap;rounded=0;movable=0;resizable=0;rotatable=0;deletable=0;editable=0;locked=1;connectable=0;" parent="1" vertex="1">
          <mxGeometry x="180" y="1030" width="170" height="30" as="geometry" />
        </mxCell>
        <mxCell id="3doMllF0IpgtHquyGkLY-24" value="&lt;p style=&quot;margin:0px;margin-top:6px;text-align:center;&quot;&gt;&lt;b&gt;DataNode&lt;/b&gt;&lt;/p&gt;" style="align=left;overflow=fill;html=1;dropTarget=0;whiteSpace=wrap;" parent="1" vertex="1">
          <mxGeometry x="135" y="-486" width="440" height="150" as="geometry" />
        </mxCell>
        <mxCell id="3doMllF0IpgtHquyGkLY-25" value="" style="shape=component;jettyWidth=8;jettyHeight=4;" parent="3doMllF0IpgtHquyGkLY-24" vertex="1">
          <mxGeometry x="1" width="20" height="20" relative="1" as="geometry">
            <mxPoint x="-24" y="4" as="offset" />
          </mxGeometry>
        </mxCell>
        <mxCell id="3doMllF0IpgtHquyGkLY-29" value="&lt;p style=&quot;margin:0px;margin-top:6px;text-align:center;&quot;&gt;&lt;b&gt;DataNode&lt;/b&gt;&lt;/p&gt;" style="align=left;overflow=fill;html=1;dropTarget=0;whiteSpace=wrap;" parent="1" vertex="1">
          <mxGeometry x="715" y="-451" width="180" height="60" as="geometry" />
        </mxCell>
        <mxCell id="3doMllF0IpgtHquyGkLY-30" value="" style="shape=component;jettyWidth=8;jettyHeight=4;" parent="3doMllF0IpgtHquyGkLY-29" vertex="1">
          <mxGeometry x="1" width="20" height="20" relative="1" as="geometry">
            <mxPoint x="-24" y="4" as="offset" />
          </mxGeometry>
        </mxCell>
        <mxCell id="3doMllF0IpgtHquyGkLY-31" value="&lt;p style=&quot;margin:0px;margin-top:6px;text-align:center;&quot;&gt;&lt;b&gt;DataNode&lt;/b&gt;&lt;/p&gt;" style="align=left;overflow=fill;html=1;dropTarget=0;whiteSpace=wrap;" parent="1" vertex="1">
          <mxGeometry x="1055" y="-451" width="180" height="60" as="geometry" />
        </mxCell>
        <mxCell id="3doMllF0IpgtHquyGkLY-32" value="" style="shape=component;jettyWidth=8;jettyHeight=4;" parent="3doMllF0IpgtHquyGkLY-31" vertex="1">
          <mxGeometry x="1" width="20" height="20" relative="1" as="geometry">
            <mxPoint x="-24" y="4" as="offset" />
          </mxGeometry>
        </mxCell>
        <mxCell id="3doMllF0IpgtHquyGkLY-33" value="DataNode Layer" style="text;html=1;align=center;verticalAlign=middle;whiteSpace=wrap;rounded=0;" parent="1" vertex="1">
          <mxGeometry x="-55" y="-536" width="120" height="30" as="geometry" />
        </mxCell>
        <mxCell id="3doMllF0IpgtHquyGkLY-34" value="MIDDLE LAYER" style="text;html=1;align=center;verticalAlign=middle;whiteSpace=wrap;rounded=0;" parent="1" vertex="1">
          <mxGeometry x="-55" y="-506" width="120" height="30" as="geometry" />
        </mxCell>
        <mxCell id="3doMllF0IpgtHquyGkLY-35" value="&lt;p style=&quot;margin:0px;margin-top:6px;text-align:center;&quot;&gt;&lt;b&gt;DataNode&lt;/b&gt;&lt;/p&gt;" style="align=left;overflow=fill;html=1;dropTarget=0;whiteSpace=wrap;" parent="1" vertex="1">
          <mxGeometry x="165" y="-710" width="440" height="150" as="geometry" />
        </mxCell>
        <mxCell id="3doMllF0IpgtHquyGkLY-36" value="" style="shape=component;jettyWidth=8;jettyHeight=4;" parent="3doMllF0IpgtHquyGkLY-35" vertex="1">
          <mxGeometry x="1" width="20" height="20" relative="1" as="geometry">
            <mxPoint x="-24" y="4" as="offset" />
          </mxGeometry>
        </mxCell>
        <mxCell id="3doMllF0IpgtHquyGkLY-39" value="" style="endArrow=classic;startArrow=classic;html=1;rounded=0;fontSize=12;startSize=8;endSize=8;curved=1;entryX=1.001;entryY=0.385;entryDx=0;entryDy=0;entryPerimeter=0;exitX=0;exitY=0.25;exitDx=0;exitDy=0;" parent="1" source="3doMllF0IpgtHquyGkLY-29" target="3doMllF0IpgtHquyGkLY-24" edge="1">
          <mxGeometry width="50" height="50" relative="1" as="geometry">
            <mxPoint x="965" y="-176" as="sourcePoint" />
            <mxPoint x="1015" y="-226" as="targetPoint" />
          </mxGeometry>
        </mxCell>
        <mxCell id="3doMllF0IpgtHquyGkLY-40" value="Block Replication" style="edgeLabel;html=1;align=center;verticalAlign=middle;resizable=0;points=[];fontSize=12;" parent="3doMllF0IpgtHquyGkLY-39" vertex="1" connectable="0">
          <mxGeometry x="-0.0448" y="-1" relative="1" as="geometry">
            <mxPoint as="offset" />
          </mxGeometry>
        </mxCell>
        <mxCell id="3doMllF0IpgtHquyGkLY-41" value="" style="endArrow=classic;startArrow=classic;html=1;rounded=0;fontSize=12;startSize=8;endSize=8;curved=1;entryX=0;entryY=0.5;entryDx=0;entryDy=0;exitX=1;exitY=0.5;exitDx=0;exitDy=0;" parent="1" source="3doMllF0IpgtHquyGkLY-29" target="3doMllF0IpgtHquyGkLY-31" edge="1">
          <mxGeometry width="50" height="50" relative="1" as="geometry">
            <mxPoint x="825" y="-326" as="sourcePoint" />
            <mxPoint x="875" y="-376" as="targetPoint" />
          </mxGeometry>
        </mxCell>
        <mxCell id="3doMllF0IpgtHquyGkLY-42" value="Block Replication" style="edgeLabel;html=1;align=center;verticalAlign=middle;resizable=0;points=[];fontSize=12;" parent="3doMllF0IpgtHquyGkLY-41" vertex="1" connectable="0">
          <mxGeometry x="-0.0444" relative="1" as="geometry">
            <mxPoint as="offset" />
          </mxGeometry>
        </mxCell>
        <mxCell id="3doMllF0IpgtHquyGkLY-43" value="" style="endArrow=classic;startArrow=classic;html=1;rounded=0;fontSize=12;startSize=8;endSize=8;curved=1;exitX=0.998;exitY=0.826;exitDx=0;exitDy=0;exitPerimeter=0;entryX=0;entryY=1;entryDx=0;entryDy=0;" parent="1" source="3doMllF0IpgtHquyGkLY-24" target="3doMllF0IpgtHquyGkLY-31" edge="1">
          <mxGeometry width="50" height="50" relative="1" as="geometry">
            <mxPoint x="825" y="-326" as="sourcePoint" />
            <mxPoint x="875" y="-376" as="targetPoint" />
            <Array as="points">
              <mxPoint x="855" y="-346" />
            </Array>
          </mxGeometry>
        </mxCell>
        <mxCell id="3doMllF0IpgtHquyGkLY-44" value="Block Replciation" style="edgeLabel;html=1;align=center;verticalAlign=middle;resizable=0;points=[];fontSize=12;" parent="3doMllF0IpgtHquyGkLY-43" vertex="1" connectable="0">
          <mxGeometry x="-0.1323" y="10" relative="1" as="geometry">
            <mxPoint as="offset" />
          </mxGeometry>
        </mxCell>
        <mxCell id="3doMllF0IpgtHquyGkLY-45" value="" style="endArrow=none;dashed=1;html=1;dashPattern=1 3;strokeWidth=2;rounded=0;fontSize=12;startSize=8;endSize=8;curved=1;fillColor=#60a917;strokeColor=#2D7600;" parent="1" edge="1">
          <mxGeometry width="50" height="50" relative="1" as="geometry">
            <mxPoint x="-70" y="-116" as="sourcePoint" />
            <mxPoint x="1720" y="-116" as="targetPoint" />
          </mxGeometry>
        </mxCell>
        <mxCell id="3doMllF0IpgtHquyGkLY-47" value="DataNode Protocol" style="text;html=1;align=center;verticalAlign=middle;whiteSpace=wrap;rounded=0;" parent="1" vertex="1">
          <mxGeometry x="-70" y="-106" width="160" height="30" as="geometry" />
        </mxCell>
        <mxCell id="3doMllF0IpgtHquyGkLY-48" value="" style="endArrow=classic;html=1;rounded=0;fontSize=12;startSize=8;endSize=8;curved=1;exitX=0.5;exitY=1;exitDx=0;exitDy=0;entryX=0.5;entryY=0;entryDx=0;entryDy=0;" parent="1" edge="1">
          <mxGeometry width="50" height="50" relative="1" as="geometry">
            <mxPoint x="355" y="-350.22" as="sourcePoint" />
            <mxPoint x="245" y="144" as="targetPoint" />
          </mxGeometry>
        </mxCell>
        <mxCell id="3doMllF0IpgtHquyGkLY-49" value="HeartBeat + BlockReport" style="edgeLabel;html=1;align=center;verticalAlign=middle;resizable=0;points=[];fontSize=12;" parent="3doMllF0IpgtHquyGkLY-48" vertex="1" connectable="0">
          <mxGeometry x="-0.0146" y="-1" relative="1" as="geometry">
            <mxPoint as="offset" />
          </mxGeometry>
        </mxCell>
        <mxCell id="3doMllF0IpgtHquyGkLY-50" value="" style="endArrow=classic;html=1;rounded=0;fontSize=12;startSize=8;endSize=8;curved=1;exitX=0.25;exitY=1;exitDx=0;exitDy=0;" parent="1" edge="1">
          <mxGeometry width="50" height="50" relative="1" as="geometry">
            <mxPoint x="760" y="-405.22" as="sourcePoint" />
            <mxPoint x="355.4802494207829" y="144" as="targetPoint" />
          </mxGeometry>
        </mxCell>
        <mxCell id="3doMllF0IpgtHquyGkLY-51" value="HeartBeat + Block Report" style="edgeLabel;html=1;align=center;verticalAlign=middle;resizable=0;points=[];fontSize=12;" parent="3doMllF0IpgtHquyGkLY-50" vertex="1" connectable="0">
          <mxGeometry x="-0.0083" y="-2" relative="1" as="geometry">
            <mxPoint as="offset" />
          </mxGeometry>
        </mxCell>
        <mxCell id="3doMllF0IpgtHquyGkLY-52" value="" style="endArrow=classic;html=1;rounded=0;fontSize=12;startSize=8;endSize=8;curved=1;exitX=0.384;exitY=1.008;exitDx=0;exitDy=0;exitPerimeter=0;" parent="1" edge="1">
          <mxGeometry width="50" height="50" relative="1" as="geometry">
            <mxPoint x="1124.12" y="-404.74" as="sourcePoint" />
            <mxPoint x="433.72255774680116" y="144" as="targetPoint" />
          </mxGeometry>
        </mxCell>
        <mxCell id="3doMllF0IpgtHquyGkLY-53" value="HeartBeat + BlockReport&lt;div&gt;&lt;br&gt;&lt;/div&gt;" style="edgeLabel;html=1;align=center;verticalAlign=middle;resizable=0;points=[];fontSize=12;" parent="3doMllF0IpgtHquyGkLY-52" vertex="1" connectable="0">
          <mxGeometry x="-0.001" y="2" relative="1" as="geometry">
            <mxPoint x="1" as="offset" />
          </mxGeometry>
        </mxCell>
        <mxCell id="3doMllF0IpgtHquyGkLY-54" value="&lt;h1 style=&quot;margin-top: 0px;&quot;&gt;ToDo&lt;/h1&gt;&lt;p&gt;Seperate the Nodes into Racks as the NameNode is rack aware.&lt;/p&gt;&lt;p&gt;Also somehow tie in data replication factor&lt;/p&gt;&lt;p&gt;&lt;br&gt;&lt;/p&gt;&lt;p&gt;Maybe also make the blocks look more indepth&lt;/p&gt;&lt;p&gt;&lt;br&gt;&lt;/p&gt;" style="text;html=1;whiteSpace=wrap;overflow=hidden;rounded=0;" parent="1" vertex="1">
          <mxGeometry x="1470" y="-36" width="180" height="250" as="geometry" />
        </mxCell>
        <mxCell id="3doMllF0IpgtHquyGkLY-55" value="" style="endArrow=classic;html=1;rounded=0;fontSize=12;startSize=8;endSize=8;curved=1;" parent="1" edge="1">
          <mxGeometry width="50" height="50" relative="1" as="geometry">
            <mxPoint x="40" y="-66" as="sourcePoint" />
            <mxPoint x="40" y="44" as="targetPoint" />
          </mxGeometry>
        </mxCell>
        <mxCell id="3doMllF0IpgtHquyGkLY-56" value="RPC&#39;s, NameNode never messages first" style="edgeLabel;html=1;align=center;verticalAlign=middle;resizable=0;points=[];fontSize=12;" parent="3doMllF0IpgtHquyGkLY-55" vertex="1" connectable="0">
          <mxGeometry x="0.0115" y="-6" relative="1" as="geometry">
            <mxPoint as="offset" />
          </mxGeometry>
        </mxCell>
        <mxCell id="3doMllF0IpgtHquyGkLY-57" value="" style="endArrow=classic;html=1;rounded=0;fontSize=12;startSize=8;endSize=8;curved=1;exitX=0.521;exitY=0.003;exitDx=0;exitDy=0;exitPerimeter=0;entryX=0.526;entryY=0.982;entryDx=0;entryDy=0;entryPerimeter=0;" parent="1" edge="1">
          <mxGeometry width="50" height="50" relative="1" as="geometry">
            <mxPoint x="254.8699999999999" y="144.89999999999964" as="sourcePoint" />
            <mxPoint x="366.44000000000005" y="-352.91999999999985" as="targetPoint" />
          </mxGeometry>
        </mxCell>
        <mxCell id="3doMllF0IpgtHquyGkLY-58" value="Replication Instructions&lt;div&gt;&amp;amp; Copmmands&lt;/div&gt;" style="edgeLabel;html=1;align=center;verticalAlign=middle;resizable=0;points=[];fontSize=12;" parent="3doMllF0IpgtHquyGkLY-57" vertex="1" connectable="0">
          <mxGeometry x="-0.3876" y="1" relative="1" as="geometry">
            <mxPoint as="offset" />
          </mxGeometry>
        </mxCell>
        <mxCell id="3doMllF0IpgtHquyGkLY-59" value="" style="endArrow=classic;html=1;rounded=0;fontSize=12;startSize=8;endSize=8;curved=1;entryX=0.341;entryY=0.987;entryDx=0;entryDy=0;entryPerimeter=0;exitX=0.711;exitY=0.01;exitDx=0;exitDy=0;exitPerimeter=0;" parent="1" source="3doMllF0IpgtHquyGkLY-28" edge="1">
          <mxGeometry width="50" height="50" relative="1" as="geometry">
            <mxPoint x="344.1699999999996" y="147" as="sourcePoint" />
            <mxPoint x="776.3800000000001" y="-406.0000000000002" as="targetPoint" />
          </mxGeometry>
        </mxCell>
        <mxCell id="3doMllF0IpgtHquyGkLY-61" value="" style="endArrow=classic;html=1;rounded=0;fontSize=12;startSize=8;endSize=8;curved=1;exitX=0.894;exitY=0.01;exitDx=0;exitDy=0;exitPerimeter=0;entryX=0.5;entryY=1;entryDx=0;entryDy=0;" parent="1" edge="1">
          <mxGeometry width="50" height="50" relative="1" as="geometry">
            <mxPoint x="430.17999999999984" y="147" as="sourcePoint" />
            <mxPoint x="1145" y="-405.22" as="targetPoint" />
          </mxGeometry>
        </mxCell>
        <mxCell id="3doMllF0IpgtHquyGkLY-62" value="Replication Instructions &amp;amp; Commands" style="edgeLabel;html=1;align=center;verticalAlign=middle;resizable=0;points=[];fontSize=12;" parent="3doMllF0IpgtHquyGkLY-61" vertex="1" connectable="0">
          <mxGeometry x="-0.3865" y="-1" relative="1" as="geometry">
            <mxPoint as="offset" />
          </mxGeometry>
        </mxCell>
        <mxCell id="dRA6FbCm-RoomiW9IVKK-1" value="" style="swimlane;startSize=0;" parent="1" vertex="1">
          <mxGeometry x="100" y="-526" width="510" height="250" as="geometry" />
        </mxCell>
        <mxCell id="dRA6FbCm-RoomiW9IVKK-5" value="" style="swimlane;startSize=0;" parent="1" vertex="1">
          <mxGeometry x="680" y="-486" width="250" height="140" as="geometry" />
        </mxCell>
        <mxCell id="dRA6FbCm-RoomiW9IVKK-6" value="" style="swimlane;startSize=0;" parent="1" vertex="1">
          <mxGeometry x="1045" y="-486" width="195" height="140" as="geometry" />
        </mxCell>
        <mxCell id="dRA6FbCm-RoomiW9IVKK-16" style="edgeStyle=orthogonalEdgeStyle;rounded=0;orthogonalLoop=1;jettySize=auto;html=1;exitX=0.5;exitY=1;exitDx=0;exitDy=0;" parent="1" source="3doMllF0IpgtHquyGkLY-21" target="3doMllF0IpgtHquyGkLY-21" edge="1">
          <mxGeometry relative="1" as="geometry" />
        </mxCell>
        <mxCell id="dRA6FbCm-RoomiW9IVKK-18" value="" style="curved=1;endArrow=classic;html=1;rounded=0;exitX=1;exitY=0.75;exitDx=0;exitDy=0;entryX=0.5;entryY=1;entryDx=0;entryDy=0;strokeWidth=3;" parent="1" source="3doMllF0IpgtHquyGkLY-3" target="3doMllF0IpgtHquyGkLY-13" edge="1">
          <mxGeometry width="50" height="50" relative="1" as="geometry">
            <mxPoint x="708.12" y="1280" as="sourcePoint" />
            <mxPoint x="758.12" y="1230" as="targetPoint" />
            <Array as="points">
              <mxPoint x="758.12" y="1280" />
            </Array>
          </mxGeometry>
        </mxCell>
        <mxCell id="dRA6FbCm-RoomiW9IVKK-19" value="Periodic CheckPoints" style="edgeLabel;html=1;align=center;verticalAlign=middle;resizable=0;points=[];" parent="dRA6FbCm-RoomiW9IVKK-18" vertex="1" connectable="0">
          <mxGeometry x="-0.1178" y="12" relative="1" as="geometry">
            <mxPoint as="offset" />
          </mxGeometry>
        </mxCell>
        <mxCell id="dRA6FbCm-RoomiW9IVKK-22" value="&lt;font style=&quot;color: light-dark(rgb(0, 0, 0), rgb(0, 0, 0)); font-size: 19px;&quot;&gt;&lt;b style=&quot;&quot;&gt;DataNodeProtocol&lt;/b&gt;&lt;/font&gt;" style="text;html=1;align=center;verticalAlign=middle;whiteSpace=wrap;rounded=0;" parent="1" vertex="1">
          <mxGeometry x="190" y="750" width="150" height="30" as="geometry" />
        </mxCell>
        <mxCell id="dRA6FbCm-RoomiW9IVKK-23" value="" style="html=1;whiteSpace=wrap;rounded=1;movable=0;resizable=0;rotatable=0;deletable=0;editable=0;locked=1;connectable=0;" parent="1" vertex="1">
          <mxGeometry x="40" y="330" width="960" height="405" as="geometry" />
        </mxCell>
        <mxCell id="LIPZjpIcFIrhckEanFY--1" value="" style="rounded=1;whiteSpace=wrap;html=1;fillColor=#d0cee2;strokeColor=#56517e;" vertex="1" parent="1">
          <mxGeometry x="110" y="390" width="410" height="290" as="geometry" />
        </mxCell>
        <mxCell id="dRA6FbCm-RoomiW9IVKK-33" value="&lt;p style=&quot;margin:0px;margin-top:6px;text-align:center;&quot;&gt;&lt;span style=&quot;font-size: 14px;&quot;&gt;&lt;b&gt;DataNode&lt;/b&gt;&lt;/span&gt;&lt;/p&gt;" style="align=left;overflow=fill;html=1;dropTarget=0;whiteSpace=wrap;rounded=1;fillColor=#b0e3e6;strokeColor=#0e8088;movable=0;resizable=0;rotatable=0;deletable=0;editable=0;locked=1;connectable=0;" parent="1" vertex="1">
          <mxGeometry x="130" y="435" width="370" height="230" as="geometry" />
        </mxCell>
        <mxCell id="dRA6FbCm-RoomiW9IVKK-34" value="" style="shape=component;jettyWidth=8;jettyHeight=4;" parent="dRA6FbCm-RoomiW9IVKK-33" vertex="1">
          <mxGeometry x="1" width="20" height="20" relative="1" as="geometry">
            <mxPoint x="-24" y="4" as="offset" />
          </mxGeometry>
        </mxCell>
        <mxCell id="3doMllF0IpgtHquyGkLY-26" value="&lt;font style=&quot;font-size: 14px;&quot;&gt;Block Storage&lt;/font&gt;" style="html=1;whiteSpace=wrap;rounded=1;" parent="1" vertex="1">
          <mxGeometry x="155" y="505" width="140" height="90" as="geometry" />
        </mxCell>
        <mxCell id="3doMllF0IpgtHquyGkLY-27" value="HeartBeat Service" style="html=1;whiteSpace=wrap;rounded=1;" parent="1" vertex="1">
          <mxGeometry x="335" y="570" width="110" height="50" as="geometry" />
        </mxCell>
        <mxCell id="3doMllF0IpgtHquyGkLY-28" value="&lt;font style=&quot;font-size: 14px;&quot;&gt;Block Reports&lt;/font&gt;" style="html=1;whiteSpace=wrap;rounded=1;" parent="1" vertex="1">
          <mxGeometry x="335" y="490" width="110" height="50" as="geometry" />
        </mxCell>
        <mxCell id="dRA6FbCm-RoomiW9IVKK-37" value="" style="shape=cube;whiteSpace=wrap;html=1;boundedLbl=1;backgroundOutline=1;darkOpacity=0.05;darkOpacity2=0.1;size=10;fillColor=#fad7ac;strokeColor=#b46504;" parent="1" vertex="1">
          <mxGeometry x="170" y="560" width="30" height="30" as="geometry" />
        </mxCell>
        <mxCell id="dRA6FbCm-RoomiW9IVKK-38" value="" style="shape=cube;whiteSpace=wrap;html=1;boundedLbl=1;backgroundOutline=1;darkOpacity=0.05;darkOpacity2=0.1;size=10;fillColor=#fad7ac;strokeColor=#b46504;" parent="1" vertex="1">
          <mxGeometry x="210" y="560" width="30" height="30" as="geometry" />
        </mxCell>
        <mxCell id="dRA6FbCm-RoomiW9IVKK-39" value="" style="shape=cube;whiteSpace=wrap;html=1;boundedLbl=1;backgroundOutline=1;darkOpacity=0.05;darkOpacity2=0.1;size=10;fillColor=#fad7ac;strokeColor=#b46504;" parent="1" vertex="1">
          <mxGeometry x="250" y="560" width="30" height="30" as="geometry" />
        </mxCell>
        <mxCell id="dRA6FbCm-RoomiW9IVKK-40" value="" style="shape=cube;whiteSpace=wrap;html=1;boundedLbl=1;backgroundOutline=1;darkOpacity=0.05;darkOpacity2=0.1;size=10;fillColor=#fad7ac;strokeColor=#b46504;" parent="1" vertex="1">
          <mxGeometry x="170" y="510" width="30" height="30" as="geometry" />
        </mxCell>
        <mxCell id="dRA6FbCm-RoomiW9IVKK-41" value="" style="shape=cube;whiteSpace=wrap;html=1;boundedLbl=1;backgroundOutline=1;darkOpacity=0.05;darkOpacity2=0.1;size=10;fillColor=#fad7ac;strokeColor=#b46504;" parent="1" vertex="1">
          <mxGeometry x="210" y="510" width="30" height="30" as="geometry" />
        </mxCell>
        <mxCell id="dRA6FbCm-RoomiW9IVKK-42" value="" style="shape=cube;whiteSpace=wrap;html=1;boundedLbl=1;backgroundOutline=1;darkOpacity=0.05;darkOpacity2=0.1;size=10;fillColor=#fad7ac;strokeColor=#b46504;" parent="1" vertex="1">
          <mxGeometry x="250" y="510" width="30" height="30" as="geometry" />
        </mxCell>
        <mxCell id="LIPZjpIcFIrhckEanFY--3" value="&lt;font style=&quot;font-size: 14px;&quot;&gt;&lt;b&gt;Rack 1&lt;/b&gt;&lt;/font&gt;" style="text;html=1;align=center;verticalAlign=middle;whiteSpace=wrap;rounded=0;" vertex="1" parent="1">
          <mxGeometry x="280" y="390" width="60" height="30" as="geometry" />
        </mxCell>
        <mxCell id="LIPZjpIcFIrhckEanFY--4" value="" style="rounded=1;whiteSpace=wrap;html=1;fillColor=#d0cee2;strokeColor=#56517e;" vertex="1" parent="1">
          <mxGeometry x="550" y="390" width="181.88" height="140" as="geometry" />
        </mxCell>
        <mxCell id="LIPZjpIcFIrhckEanFY--5" value="" style="rounded=1;whiteSpace=wrap;html=1;fillColor=#d0cee2;strokeColor=#56517e;" vertex="1" parent="1">
          <mxGeometry x="760" y="390" width="181.88" height="140" as="geometry" />
        </mxCell>
        <mxCell id="LIPZjpIcFIrhckEanFY--6" value="&lt;font style=&quot;font-size: 14px;&quot;&gt;&lt;b&gt;Rack 2&lt;/b&gt;&lt;/font&gt;" style="text;html=1;align=center;verticalAlign=middle;whiteSpace=wrap;rounded=0;" vertex="1" parent="1">
          <mxGeometry x="610" y="390" width="60" height="30" as="geometry" />
        </mxCell>
        <mxCell id="LIPZjpIcFIrhckEanFY--7" value="&lt;font style=&quot;font-size: 14px;&quot;&gt;&lt;b&gt;Rack 3&lt;/b&gt;&lt;/font&gt;" style="text;html=1;align=center;verticalAlign=middle;whiteSpace=wrap;rounded=0;" vertex="1" parent="1">
          <mxGeometry x="820.94" y="390" width="60" height="30" as="geometry" />
        </mxCell>
        <mxCell id="LIPZjpIcFIrhckEanFY--8" value="&lt;p style=&quot;margin:0px;margin-top:6px;text-align:center;&quot;&gt;&lt;span style=&quot;font-size: 14px;&quot;&gt;&lt;b&gt;DataNode&lt;/b&gt;&lt;/span&gt;&lt;/p&gt;" style="align=left;overflow=fill;html=1;dropTarget=0;whiteSpace=wrap;rounded=1;fillColor=#b0e3e6;strokeColor=#0e8088;movable=1;resizable=1;rotatable=1;deletable=1;editable=1;locked=0;connectable=1;" vertex="1" parent="1">
          <mxGeometry x="576.88" y="430" width="128.12" height="80" as="geometry" />
        </mxCell>
        <mxCell id="LIPZjpIcFIrhckEanFY--9" value="" style="shape=component;jettyWidth=8;jettyHeight=4;" vertex="1" parent="LIPZjpIcFIrhckEanFY--8">
          <mxGeometry x="1" width="20" height="20" relative="1" as="geometry">
            <mxPoint x="-24" y="4" as="offset" />
          </mxGeometry>
        </mxCell>
        <mxCell id="LIPZjpIcFIrhckEanFY--10" value="&lt;p style=&quot;margin:0px;margin-top:6px;text-align:center;&quot;&gt;&lt;span style=&quot;font-size: 14px;&quot;&gt;&lt;b&gt;DataNode&lt;/b&gt;&lt;/span&gt;&lt;/p&gt;" style="align=left;overflow=fill;html=1;dropTarget=0;whiteSpace=wrap;rounded=1;fillColor=#b0e3e6;strokeColor=#0e8088;movable=1;resizable=1;rotatable=1;deletable=1;editable=1;locked=0;connectable=1;" vertex="1" parent="1">
          <mxGeometry x="786.4100000000001" y="430" width="129.06" height="80" as="geometry" />
        </mxCell>
        <mxCell id="LIPZjpIcFIrhckEanFY--11" value="" style="shape=component;jettyWidth=8;jettyHeight=4;" vertex="1" parent="LIPZjpIcFIrhckEanFY--10">
          <mxGeometry x="1" width="20" height="20" relative="1" as="geometry">
            <mxPoint x="-24" y="4" as="offset" />
          </mxGeometry>
        </mxCell>
        <mxCell id="LIPZjpIcFIrhckEanFY--12" value="" style="curved=1;endArrow=classic;html=1;rounded=0;entryX=0.5;entryY=1;entryDx=0;entryDy=0;strokeWidth=3;startArrow=classic;startFill=1;" edge="1" parent="1" target="LIPZjpIcFIrhckEanFY--8">
          <mxGeometry width="50" height="50" relative="1" as="geometry">
            <mxPoint x="500" y="600" as="sourcePoint" />
            <mxPoint x="620" y="550" as="targetPoint" />
            <Array as="points">
              <mxPoint x="620" y="600" />
            </Array>
          </mxGeometry>
        </mxCell>
        <mxCell id="LIPZjpIcFIrhckEanFY--18" value="&lt;font style=&quot;font-size: 14px;&quot;&gt;Block Replication&lt;/font&gt;" style="edgeLabel;html=1;align=center;verticalAlign=middle;resizable=0;points=[];" vertex="1" connectable="0" parent="LIPZjpIcFIrhckEanFY--12">
          <mxGeometry x="-0.0748" y="25" relative="1" as="geometry">
            <mxPoint as="offset" />
          </mxGeometry>
        </mxCell>
        <mxCell id="LIPZjpIcFIrhckEanFY--15" value="" style="curved=1;endArrow=classic;html=1;rounded=0;entryX=0.5;entryY=1;entryDx=0;entryDy=0;strokeWidth=3;startArrow=classic;startFill=1;" edge="1" parent="1" target="LIPZjpIcFIrhckEanFY--10">
          <mxGeometry width="50" height="50" relative="1" as="geometry">
            <mxPoint x="500" y="630" as="sourcePoint" />
            <mxPoint x="811" y="600" as="targetPoint" />
            <Array as="points">
              <mxPoint x="790" y="670" />
            </Array>
          </mxGeometry>
        </mxCell>
        <mxCell id="LIPZjpIcFIrhckEanFY--19" value="&lt;font style=&quot;font-size: 14px;&quot;&gt;Block Replication&lt;/font&gt;" style="edgeLabel;html=1;align=center;verticalAlign=middle;resizable=0;points=[];" vertex="1" connectable="0" parent="LIPZjpIcFIrhckEanFY--15">
          <mxGeometry x="0.4507" y="47" relative="1" as="geometry">
            <mxPoint as="offset" />
          </mxGeometry>
        </mxCell>
        <mxCell id="LIPZjpIcFIrhckEanFY--20" value="" style="curved=1;endArrow=classic;html=1;rounded=0;entryX=0.5;entryY=0;entryDx=0;entryDy=0;strokeWidth=3;startArrow=classic;startFill=1;exitX=0.5;exitY=0;exitDx=0;exitDy=0;" edge="1" parent="1" source="LIPZjpIcFIrhckEanFY--6" target="LIPZjpIcFIrhckEanFY--5">
          <mxGeometry width="50" height="50" relative="1" as="geometry">
            <mxPoint x="740" y="690" as="sourcePoint" />
            <mxPoint x="1091" y="570" as="targetPoint" />
            <Array as="points">
              <mxPoint x="750" y="350" />
            </Array>
          </mxGeometry>
        </mxCell>
        <mxCell id="LIPZjpIcFIrhckEanFY--22" value="&lt;font style=&quot;font-size: 14px;&quot;&gt;Block Replication&lt;/font&gt;" style="edgeLabel;html=1;align=center;verticalAlign=middle;resizable=0;points=[];" vertex="1" connectable="0" parent="LIPZjpIcFIrhckEanFY--20">
          <mxGeometry x="-0.0534" y="-12" relative="1" as="geometry">
            <mxPoint y="-1" as="offset" />
          </mxGeometry>
        </mxCell>
        <mxCell id="LIPZjpIcFIrhckEanFY--24" value="" style="endArrow=classic;html=1;rounded=0;fillColor=#e6d0de;strokeColor=#996185;strokeWidth=4;gradientColor=#d5739d;" edge="1" parent="1">
          <mxGeometry width="50" height="50" relative="1" as="geometry">
            <mxPoint x="410" y="670" as="sourcePoint" />
            <mxPoint x="410" y="1060" as="targetPoint" />
          </mxGeometry>
        </mxCell>
        <mxCell id="LIPZjpIcFIrhckEanFY--27" value="&lt;font style=&quot;font-size: 14px;&quot;&gt;1.&lt;/font&gt;" style="edgeLabel;html=1;align=center;verticalAlign=middle;resizable=0;points=[];" vertex="1" connectable="0" parent="LIPZjpIcFIrhckEanFY--24">
          <mxGeometry x="-0.7926" y="-1" relative="1" as="geometry">
            <mxPoint as="offset" />
          </mxGeometry>
        </mxCell>
        <mxCell id="LIPZjpIcFIrhckEanFY--30" value="&lt;font style=&quot;font-size: 14px;&quot;&gt;HeartBeat&lt;/font&gt;&lt;div&gt;&lt;font style=&quot;font-size: 14px;&quot;&gt;+&lt;/font&gt;&lt;/div&gt;&lt;div&gt;&lt;font style=&quot;font-size: 14px;&quot;&gt;BlockReport&lt;/font&gt;&lt;/div&gt;" style="edgeLabel;html=1;align=center;verticalAlign=middle;resizable=0;points=[];" vertex="1" connectable="0" parent="LIPZjpIcFIrhckEanFY--24">
          <mxGeometry x="-0.3853" y="-3" relative="1" as="geometry">
            <mxPoint as="offset" />
          </mxGeometry>
        </mxCell>
        <mxCell id="LIPZjpIcFIrhckEanFY--25" value="" style="curved=1;endArrow=classic;html=1;rounded=0;strokeWidth=4;fillColor=#e6d0de;gradientColor=#d5739d;strokeColor=#996185;exitX=0.75;exitY=1;exitDx=0;exitDy=0;" edge="1" parent="1" source="LIPZjpIcFIrhckEanFY--8" target="3doMllF0IpgtHquyGkLY-3">
          <mxGeometry width="50" height="50" relative="1" as="geometry">
            <mxPoint x="600" y="840" as="sourcePoint" />
            <mxPoint x="650" y="790" as="targetPoint" />
            <Array as="points">
              <mxPoint x="630" y="790" />
              <mxPoint x="600" y="860" />
            </Array>
          </mxGeometry>
        </mxCell>
        <mxCell id="LIPZjpIcFIrhckEanFY--28" value="&lt;font style=&quot;font-size: 14px;&quot;&gt;1.&lt;/font&gt;" style="edgeLabel;html=1;align=center;verticalAlign=middle;resizable=0;points=[];" vertex="1" connectable="0" parent="LIPZjpIcFIrhckEanFY--25">
          <mxGeometry x="-0.8945" y="-1" relative="1" as="geometry">
            <mxPoint as="offset" />
          </mxGeometry>
        </mxCell>
        <mxCell id="LIPZjpIcFIrhckEanFY--31" value="&lt;font style=&quot;font-size: 14px;&quot;&gt;HeartBeat&lt;/font&gt;&lt;div&gt;&lt;font style=&quot;font-size: 14px;&quot;&gt;+&lt;/font&gt;&lt;/div&gt;&lt;div&gt;&lt;font style=&quot;font-size: 14px;&quot;&gt;BlockReport&lt;/font&gt;&lt;/div&gt;" style="edgeLabel;html=1;align=center;verticalAlign=middle;resizable=0;points=[];" vertex="1" connectable="0" parent="LIPZjpIcFIrhckEanFY--25">
          <mxGeometry x="0.0552" y="-1" relative="1" as="geometry">
            <mxPoint as="offset" />
          </mxGeometry>
        </mxCell>
        <mxCell id="LIPZjpIcFIrhckEanFY--26" value="" style="curved=1;endArrow=classic;html=1;rounded=0;exitX=0.75;exitY=1;exitDx=0;exitDy=0;strokeWidth=4;fillColor=#e6d0de;gradientColor=#d5739d;strokeColor=#996185;entryX=0.803;entryY=-0.004;entryDx=0;entryDy=0;entryPerimeter=0;" edge="1" parent="1" source="LIPZjpIcFIrhckEanFY--10" target="3doMllF0IpgtHquyGkLY-3">
          <mxGeometry width="50" height="50" relative="1" as="geometry">
            <mxPoint x="600" y="840" as="sourcePoint" />
            <mxPoint x="650" y="790" as="targetPoint" />
            <Array as="points">
              <mxPoint x="720" y="870" />
            </Array>
          </mxGeometry>
        </mxCell>
        <mxCell id="LIPZjpIcFIrhckEanFY--29" value="&lt;font style=&quot;font-size: 14px;&quot;&gt;1.&lt;/font&gt;" style="edgeLabel;html=1;align=center;verticalAlign=middle;resizable=0;points=[];" vertex="1" connectable="0" parent="LIPZjpIcFIrhckEanFY--26">
          <mxGeometry x="-0.8935" y="1" relative="1" as="geometry">
            <mxPoint as="offset" />
          </mxGeometry>
        </mxCell>
        <mxCell id="LIPZjpIcFIrhckEanFY--32" value="&lt;font style=&quot;font-size: 14px;&quot;&gt;&#39;&#39;&lt;/font&gt;" style="edgeLabel;html=1;align=center;verticalAlign=middle;resizable=0;points=[];" vertex="1" connectable="0" parent="LIPZjpIcFIrhckEanFY--26">
          <mxGeometry x="-0.0646" y="-22" relative="1" as="geometry">
            <mxPoint as="offset" />
          </mxGeometry>
        </mxCell>
        <mxCell id="LIPZjpIcFIrhckEanFY--36" value="" style="endArrow=classic;html=1;rounded=0;strokeWidth=4;fillColor=#d5e8d4;gradientColor=#97d077;strokeColor=#82b366;" edge="1" parent="1">
          <mxGeometry width="50" height="50" relative="1" as="geometry">
            <mxPoint x="425" y="940" as="sourcePoint" />
            <mxPoint x="425" y="820" as="targetPoint" />
          </mxGeometry>
        </mxCell>
        <mxCell id="LIPZjpIcFIrhckEanFY--39" value="&lt;font style=&quot;font-size: 14px;&quot;&gt;2.&lt;/font&gt;" style="edgeLabel;html=1;align=center;verticalAlign=middle;resizable=0;points=[];" vertex="1" connectable="0" parent="LIPZjpIcFIrhckEanFY--36">
          <mxGeometry x="-0.7714" y="1" relative="1" as="geometry">
            <mxPoint as="offset" />
          </mxGeometry>
        </mxCell>
        <mxCell id="LIPZjpIcFIrhckEanFY--42" value="Replication Instructions&lt;div&gt;+&lt;/div&gt;&lt;div&gt;Commands&lt;/div&gt;" style="edgeLabel;html=1;align=center;verticalAlign=middle;resizable=0;points=[];" vertex="1" connectable="0" parent="LIPZjpIcFIrhckEanFY--36">
          <mxGeometry x="0.4279" y="1" relative="1" as="geometry">
            <mxPoint x="56" y="6" as="offset" />
          </mxGeometry>
        </mxCell>
        <mxCell id="LIPZjpIcFIrhckEanFY--37" value="" style="endArrow=classic;html=1;rounded=0;strokeWidth=4;fillColor=#d5e8d4;gradientColor=#97d077;strokeColor=#82b366;exitX=0.489;exitY=0.681;exitDx=0;exitDy=0;exitPerimeter=0;" edge="1" parent="1" source="dRA6FbCm-RoomiW9IVKK-21">
          <mxGeometry width="50" height="50" relative="1" as="geometry">
            <mxPoint x="530" y="1000" as="sourcePoint" />
            <mxPoint x="590" y="850" as="targetPoint" />
          </mxGeometry>
        </mxCell>
        <mxCell id="LIPZjpIcFIrhckEanFY--40" value="&lt;font style=&quot;font-size: 14px;&quot;&gt;2.&lt;/font&gt;" style="edgeLabel;html=1;align=center;verticalAlign=middle;resizable=0;points=[];" vertex="1" connectable="0" parent="LIPZjpIcFIrhckEanFY--37">
          <mxGeometry x="-0.6832" y="1" relative="1" as="geometry">
            <mxPoint as="offset" />
          </mxGeometry>
        </mxCell>
        <mxCell id="LIPZjpIcFIrhckEanFY--38" value="" style="endArrow=classic;html=1;rounded=0;strokeWidth=4;fillColor=#d5e8d4;gradientColor=#97d077;strokeColor=#82b366;entryX=0.691;entryY=0.468;entryDx=0;entryDy=0;entryPerimeter=0;" edge="1" parent="1" target="dRA6FbCm-RoomiW9IVKK-21">
          <mxGeometry width="50" height="50" relative="1" as="geometry">
            <mxPoint x="630" y="950" as="sourcePoint" />
            <mxPoint x="710" y="920" as="targetPoint" />
          </mxGeometry>
        </mxCell>
        <mxCell id="LIPZjpIcFIrhckEanFY--41" value="&lt;font style=&quot;font-size: 14px;&quot;&gt;2.&lt;/font&gt;" style="edgeLabel;html=1;align=center;verticalAlign=middle;resizable=0;points=[];" vertex="1" connectable="0" parent="LIPZjpIcFIrhckEanFY--38">
          <mxGeometry x="-0.7959" y="1" relative="1" as="geometry">
            <mxPoint as="offset" />
          </mxGeometry>
        </mxCell>
        <mxCell id="LIPZjpIcFIrhckEanFY--46" value="&lt;font style=&quot;font-size: 19px;&quot;&gt;&lt;b style=&quot;&quot;&gt;NameNode Protocol&lt;/b&gt;&lt;/font&gt;" style="text;html=1;align=center;verticalAlign=middle;whiteSpace=wrap;rounded=0;" vertex="1" parent="1">
          <mxGeometry x="1010" y="890" width="120" height="30" as="geometry" />
        </mxCell>
        <mxCell id="LIPZjpIcFIrhckEanFY--47" value="&lt;font style=&quot;font-size: 19px;&quot;&gt;Client API&lt;/font&gt;" style="shape=hexagon;perimeter=hexagonPerimeter2;whiteSpace=wrap;html=1;fixedSize=1;" vertex="1" parent="1">
          <mxGeometry x="1150" y="820" width="120" height="80" as="geometry" />
        </mxCell>
        <mxCell id="LIPZjpIcFIrhckEanFY--48" value="" style="image;points=[];aspect=fixed;html=1;align=center;shadow=0;dashed=0;image=img/lib/allied_telesis/computer_and_terminals/Personal_Computer.svg;" vertex="1" parent="1">
          <mxGeometry x="1298.76" y="990" width="45.6" height="61.800000000000004" as="geometry" />
        </mxCell>
        <mxCell id="LIPZjpIcFIrhckEanFY--52" value="&lt;p style=&quot;margin:0px;margin-top:6px;text-align:center;&quot;&gt;&lt;span style=&quot;font-size: 14px;&quot;&gt;&lt;b&gt;MapReduce Job&lt;/b&gt;&lt;/span&gt;&lt;/p&gt;" style="align=left;overflow=fill;html=1;dropTarget=0;whiteSpace=wrap;rounded=1;fillColor=#d5e8d4;strokeColor=#82b366;movable=1;resizable=1;rotatable=1;deletable=1;editable=1;locked=0;connectable=1;gradientColor=#97d077;" vertex="1" parent="1">
          <mxGeometry x="1240" y="705" width="163.12" height="30" as="geometry" />
        </mxCell>
        <mxCell id="LIPZjpIcFIrhckEanFY--53" value="" style="shape=component;jettyWidth=8;jettyHeight=4;" vertex="1" parent="LIPZjpIcFIrhckEanFY--52">
          <mxGeometry x="1" width="20" height="20" relative="1" as="geometry">
            <mxPoint x="-24" y="4" as="offset" />
          </mxGeometry>
        </mxCell>
        <mxCell id="LIPZjpIcFIrhckEanFY--54" value="" style="endArrow=classic;html=1;rounded=0;entryX=0.833;entryY=1;entryDx=0;entryDy=0;entryPerimeter=0;strokeWidth=4;" edge="1" parent="1" source="LIPZjpIcFIrhckEanFY--48" target="LIPZjpIcFIrhckEanFY--47">
          <mxGeometry width="50" height="50" relative="1" as="geometry">
            <mxPoint x="1230" y="1010" as="sourcePoint" />
            <mxPoint x="1280" y="960" as="targetPoint" />
          </mxGeometry>
        </mxCell>
        <mxCell id="LIPZjpIcFIrhckEanFY--55" value="&lt;font style=&quot;font-size: 14px;&quot;&gt;Some Action&lt;/font&gt;" style="edgeLabel;html=1;align=center;verticalAlign=middle;resizable=0;points=[];" vertex="1" connectable="0" parent="LIPZjpIcFIrhckEanFY--54">
          <mxGeometry x="0.0101" y="1" relative="1" as="geometry">
            <mxPoint as="offset" />
          </mxGeometry>
        </mxCell>
        <mxCell id="LIPZjpIcFIrhckEanFY--56" value="" style="endArrow=classic;html=1;rounded=0;exitX=0.41;exitY=1.029;exitDx=0;exitDy=0;exitPerimeter=0;entryX=0.862;entryY=0.004;entryDx=0;entryDy=0;entryPerimeter=0;strokeWidth=4;" edge="1" parent="1" source="LIPZjpIcFIrhckEanFY--52" target="LIPZjpIcFIrhckEanFY--47">
          <mxGeometry width="50" height="50" relative="1" as="geometry">
            <mxPoint x="1130" y="800" as="sourcePoint" />
            <mxPoint x="1180" y="750" as="targetPoint" />
          </mxGeometry>
        </mxCell>
        <mxCell id="LIPZjpIcFIrhckEanFY--57" value="&lt;font style=&quot;font-size: 14px;&quot;&gt;Job&lt;/font&gt;" style="edgeLabel;html=1;align=center;verticalAlign=middle;resizable=0;points=[];" vertex="1" connectable="0" parent="LIPZjpIcFIrhckEanFY--56">
          <mxGeometry x="0.0225" y="-1" relative="1" as="geometry">
            <mxPoint as="offset" />
          </mxGeometry>
        </mxCell>
        <mxCell id="LIPZjpIcFIrhckEanFY--58" value="&lt;p style=&quot;margin:0px;margin-top:6px;text-align:center;&quot;&gt;&lt;span style=&quot;font-size: 14px;&quot;&gt;&lt;b&gt;AdminJob&lt;/b&gt;&lt;/span&gt;&lt;/p&gt;" style="align=left;overflow=fill;html=1;dropTarget=0;whiteSpace=wrap;rounded=1;fillColor=#d5e8d4;strokeColor=#82b366;movable=1;resizable=1;rotatable=1;deletable=1;editable=1;locked=0;connectable=1;gradientColor=#97d077;" vertex="1" parent="1">
          <mxGeometry x="1240" y="635" width="163.12" height="30" as="geometry" />
        </mxCell>
        <mxCell id="LIPZjpIcFIrhckEanFY--59" value="" style="shape=component;jettyWidth=8;jettyHeight=4;" vertex="1" parent="LIPZjpIcFIrhckEanFY--58">
          <mxGeometry x="1" width="20" height="20" relative="1" as="geometry">
            <mxPoint x="-24" y="4" as="offset" />
          </mxGeometry>
        </mxCell>
        <mxCell id="LIPZjpIcFIrhckEanFY--60" value="" style="endArrow=classic;html=1;rounded=0;entryX=0.625;entryY=0;entryDx=0;entryDy=0;strokeWidth=4;" edge="1" parent="1" source="LIPZjpIcFIrhckEanFY--58" target="LIPZjpIcFIrhckEanFY--47">
          <mxGeometry width="50" height="50" relative="1" as="geometry">
            <mxPoint x="810" y="890" as="sourcePoint" />
            <mxPoint x="860" y="840" as="targetPoint" />
            <Array as="points">
              <mxPoint x="1225" y="700" />
            </Array>
          </mxGeometry>
        </mxCell>
        <mxCell id="LIPZjpIcFIrhckEanFY--61" value="&lt;font style=&quot;font-size: 14px;&quot;&gt;Job&lt;/font&gt;" style="edgeLabel;html=1;align=center;verticalAlign=middle;resizable=0;points=[];" vertex="1" connectable="0" parent="LIPZjpIcFIrhckEanFY--60">
          <mxGeometry x="0.3529" relative="1" as="geometry">
            <mxPoint as="offset" />
          </mxGeometry>
        </mxCell>
        <mxCell id="LIPZjpIcFIrhckEanFY--62" value="" style="curved=1;endArrow=classic;html=1;rounded=0;exitX=0.227;exitY=0.982;exitDx=0;exitDy=0;exitPerimeter=0;strokeWidth=4;fillColor=#fff2cc;gradientColor=#ffd966;strokeColor=#d6b656;" edge="1" parent="1" source="LIPZjpIcFIrhckEanFY--47">
          <mxGeometry width="50" height="50" relative="1" as="geometry">
            <mxPoint x="860" y="980" as="sourcePoint" />
            <mxPoint x="570" y="1060" as="targetPoint" />
            <Array as="points">
              <mxPoint x="1140" y="960" />
              <mxPoint x="1070" y="1040" />
              <mxPoint x="940" y="1060" />
            </Array>
          </mxGeometry>
        </mxCell>
        <mxCell id="LIPZjpIcFIrhckEanFY--63" value="&lt;font style=&quot;font-size: 14px;&quot;&gt;Metadata&lt;/font&gt;&lt;div&gt;&lt;font style=&quot;font-size: 14px;&quot;&gt;And&lt;/font&gt;&lt;/div&gt;&lt;div&gt;&lt;font style=&quot;font-size: 14px;&quot;&gt;Block Location&lt;/font&gt;&lt;/div&gt;&lt;div&gt;&lt;font style=&quot;font-size: 14px;&quot;&gt;Request&lt;/font&gt;&lt;/div&gt;" style="edgeLabel;html=1;align=center;verticalAlign=middle;resizable=0;points=[];" vertex="1" connectable="0" parent="LIPZjpIcFIrhckEanFY--62">
          <mxGeometry x="-0.5481" y="-5" relative="1" as="geometry">
            <mxPoint x="-22" y="-39" as="offset" />
          </mxGeometry>
        </mxCell>
        <mxCell id="LIPZjpIcFIrhckEanFY--64" value="&lt;font style=&quot;font-size: 14px;&quot;&gt;1.&lt;/font&gt;" style="edgeLabel;html=1;align=center;verticalAlign=middle;resizable=0;points=[];" vertex="1" connectable="0" parent="LIPZjpIcFIrhckEanFY--62">
          <mxGeometry x="-0.948" y="1" relative="1" as="geometry">
            <mxPoint y="1" as="offset" />
          </mxGeometry>
        </mxCell>
        <mxCell id="LIPZjpIcFIrhckEanFY--65" value="" style="endArrow=classic;html=1;rounded=0;entryX=0.848;entryY=0.324;entryDx=0;entryDy=0;entryPerimeter=0;strokeWidth=4;fillColor=#d5e8d4;gradientColor=#97d077;strokeColor=#82b366;" edge="1" parent="1" target="LIPZjpIcFIrhckEanFY--45">
          <mxGeometry width="50" height="50" relative="1" as="geometry">
            <mxPoint x="1030" y="1070" as="sourcePoint" />
            <mxPoint x="1040" y="1050" as="targetPoint" />
            <Array as="points">
              <mxPoint x="1110" y="1040" />
            </Array>
          </mxGeometry>
        </mxCell>
        <mxCell id="LIPZjpIcFIrhckEanFY--66" value="&lt;font style=&quot;font-size: 14px;&quot;&gt;2.&lt;/font&gt;" style="edgeLabel;html=1;align=center;verticalAlign=middle;resizable=0;points=[];" vertex="1" connectable="0" parent="LIPZjpIcFIrhckEanFY--65">
          <mxGeometry x="-0.7986" y="1" relative="1" as="geometry">
            <mxPoint as="offset" />
          </mxGeometry>
        </mxCell>
      </root>
    </mxGraphModel>
  </diagram>
</mxfile>
